# xmcd CD database file
#
# Track frame offsets:
#	150
#	12006
#	33946
#	48771
#	58789
#	76553
#	93704
#	109524
#	117144
#	130255
#	145355
#	164145
#	181327
#	194137
#
# Disc length: 2809 seconds
#
# Revision: 0
# Processed by: cddbd v1.5.1PL2 Copyright (c) Steve Scherf et al.
# Submitted via: CDex 1.51
#
DISCID=ba0af70e
DTITLE=Tim Williams - Passed Through Here
DYEAR=2005
DGENRE=Blues
TTITLE0=On Down The Road
TTITLE1=In Rehearsal For The Blues
TTITLE2=Riverboat Rendezvous
TTITLE3=Poor Boy
TTITLE4=A Two-Car Family
TTITLE5=The Fool You Always Knew
TTITLE6=Letting Go Of Love
TTITLE7=The Buckdancer's Choice
TTITLE8=Death Ain't Got No Mercy In A Storm
TTITLE9=If I'm Not The One To Love You
TTITLE10=Leavin' Here Laughin'
TTITLE11=The Arms I Crave
TTITLE12=Summerland
TTITLE13=Can I Bring My Clothes Back Home?
EXTD=YEAR: 2005
EXTT0=
EXTT1=
EXTT2=
EXTT3=
EXTT4=
EXTT5=
EXTT6=
EXTT7=
EXTT8=
EXTT9=
EXTT10=
EXTT11=
EXTT12=
EXTT13=
PLAYORDER=
